<svg id="Layer_1" data-name="Layer 1" xmlns="http://www.w3.org/2000/svg" width="20" height="21.81" viewBox="0 0 20 21.81"><defs><style>.cls-1{fill:none;stroke:#fff;stroke-miterlimit:10;}</style></defs><title>ai_home</title><path class="cls-1" d="M3.19,17A1.19,1.19,0,0,0,4.32,18.2l3.33.2v3.32H18l-1.14-5.43A8.45,8.45,0,1,0,3.58,9.36c0,.15-1.95,3.06-1.95,3.06a.74.74,0,0,0,.59,1.18h1V17" transform="translate(-0.99 -0.41)"/><circle class="cls-1" cx="9.98" cy="4.77" r="0.84"/><circle class="cls-1" cx="7.66" cy="6.77" r="0.84"/><circle class="cls-1" cx="5.35" cy="9.09" r="0.84"/><circle class="cls-1" cx="13.69" cy="5.85" r="0.84"/><circle class="cls-1" cx="16.32" cy="8.46" r="0.84"/><polyline class="cls-1" points="9.98 5.61 9.98 8.98 11.06 9.95 11.06 17.06"/><polyline class="cls-1" points="7.66 7.62 7.66 9.95 9.98 12.03 9.98 17.06"/><polyline class="cls-1" points="13.69 6.69 13.69 9.91 12.14 11.06 12.14 17.06"/><polyline class="cls-1" points="5.35 9.94 5.35 11.26 8.9 14.46 8.9 17.06"/><polyline class="cls-1" points="16.32 9.3 16.32 12.16 13.22 14.46 13.22 17.06"/></svg>