<svg width="49" height="50" viewBox="0 0 49 50" fill="none" xmlns="http://www.w3.org/2000/svg">
<path d="M46.4637 37.9219H20.0522L22.3439 27.6042C22.5709 26.5812 23.0694 25.6383 23.7871 24.8748C24.5048 24.1113 25.415 23.5554 26.422 23.2656L30.4793 22.0938H36.0314L40.0887 23.2656C41.0954 23.5559 42.0054 24.112 42.723 24.8754C43.4406 25.6388 43.9394 26.5814 44.1668 27.6042L46.4637 37.9219Z" fill="#4E69B5"/>
<path d="M21.7188 37.9219L23.8542 27.9427C24.0214 27.1936 24.3873 26.5033 24.9133 25.9442C25.4393 25.3852 26.1062 24.9781 26.8438 24.7656L30.6875 23.6562H35.8333L39.6771 24.7656C40.4152 24.9771 41.0826 25.3839 41.6087 25.9431C42.1349 26.5023 42.5004 27.1931 42.6667 27.9427L44.8802 37.9219H21.7188Z" fill="#5D7DB0"/>
<path d="M36.0311 22.0939V18.0835H30.479V22.0939L33.255 27.37L36.0311 22.0939Z" fill="#FFA68D"/>
<path d="M34.2394 1.81239e-06H25.3019C25.6436 0.88352 26.149 1.6946 26.7915 2.39063C25.4975 3.77328 24.777 5.59586 24.7759 7.48959V10.8177H41.7342V7.48438C41.7335 6.50083 41.5391 5.52705 41.1621 4.61863C40.7851 3.71022 40.2328 2.88496 39.5369 2.18997C38.8409 1.49498 38.0149 0.943874 37.106 0.568119C36.197 0.192364 35.223 -0.000682394 34.2394 1.81239e-06Z" fill="#3F3C6A"/>
<path d="M24.7759 8.10938H41.7342V10.8125H24.7759V8.10938Z" fill="#302856"/>
<path d="M35.7189 3.67711H30.4012C29.9796 3.67715 29.5636 3.58045 29.1853 3.39444C28.8069 3.20843 28.4763 2.93807 28.2189 2.60419L27.6199 1.82815C27.5746 1.75244 27.5492 1.66645 27.5462 1.57825C27.5432 1.49004 27.5627 1.40253 27.6027 1.3239C27.6428 1.24528 27.7022 1.17814 27.7754 1.12878C27.8486 1.07941 27.9331 1.04944 28.021 1.04169C34.7085 1.04169 34.896 0.953148 36.0939 1.31773C36.3573 1.41613 36.5787 1.60262 36.7203 1.84558C36.862 2.08853 36.9152 2.373 36.8711 2.65075C36.8269 2.9285 36.6881 3.18243 36.4781 3.36949C36.2681 3.55656 35.9999 3.66524 35.7189 3.67711Z" fill="#4E5088"/>
<path d="M33.745 1.021H31.6356C31.3566 1.021 31.1304 1.24602 31.1304 1.5236C31.1304 1.80118 31.3566 2.0262 31.6356 2.0262H33.745C34.024 2.0262 34.2502 1.80118 34.2502 1.5236C34.2502 1.24602 34.024 1.021 33.745 1.021Z" fill="#4E5FBA"/>
<path d="M43.2602 12.4061C43.2588 12.8284 43.0905 13.2329 42.7919 13.5315C42.4933 13.8301 42.0887 13.9985 41.6664 13.9998H24.8435C24.6269 14.0122 24.41 13.9803 24.2062 13.9059C24.0024 13.8316 23.8159 13.7164 23.6582 13.5674C23.5004 13.4184 23.3748 13.2388 23.2889 13.0396C23.203 12.8403 23.1587 12.6257 23.1587 12.4087C23.1587 12.1917 23.203 11.977 23.2889 11.7778C23.3748 11.5786 23.5004 11.399 23.6582 11.25C23.8159 11.101 24.0024 10.9858 24.2062 10.9115C24.41 10.8371 24.6269 10.8051 24.8435 10.8175H41.6664C41.8755 10.8169 42.0826 10.8574 42.2759 10.937C42.4693 11.0165 42.645 11.1334 42.7931 11.281C42.9411 11.4286 43.0586 11.6039 43.1388 11.797C43.2189 11.99 43.2602 12.197 43.2602 12.4061Z" fill="#FFA68D"/>
<path d="M36.0522 18.9688V21.4583C34.2392 22.0782 32.2716 22.0782 30.4585 21.4583V18.9688H36.0522Z" fill="#FB8D74"/>
<path d="M41.5258 10.8179C41.5258 12.9793 41.5258 13.422 41.4841 14.0002H25.0258C24.9581 12.9408 24.9442 11.8787 24.9841 10.8179H41.5258Z" fill="#FB8D74"/>
<path d="M40.6561 10.8125V13.2188C40.6561 15.1817 39.8763 17.0641 38.4884 18.4521C37.1004 19.8401 35.2179 20.6198 33.255 20.6198C31.2922 20.6198 29.4097 19.8401 28.0217 18.4521C26.6338 17.0641 25.854 15.1817 25.854 13.2188V10.8125L27.2238 9.07294C27.5837 8.61535 27.7897 8.0557 27.8123 7.47399L27.8905 5.30732C27.8986 5.0669 27.9998 4.83904 28.1728 4.67188C28.3458 4.50472 28.577 4.41135 28.8175 4.41149C31.726 4.78037 34.6695 4.78037 37.578 4.41149C37.7055 4.39551 37.835 4.40624 37.9582 4.44299C38.0814 4.47975 38.1957 4.54173 38.2936 4.625C38.3916 4.70827 38.4711 4.811 38.5273 4.92667C38.5834 5.04234 38.6148 5.16842 38.6196 5.2969L38.703 7.46357C38.7213 8.04525 38.9257 8.60571 39.2863 9.06253L40.6561 10.8125Z" fill="#FBC4AB"/>
<path d="M42.7293 35.646H23.7866L22.3022 24.3804H44.2085L42.7293 35.646Z" fill="#B2E6FF"/>
<path d="M22.5625 26.3438L23.7865 35.6458H42.7292L43.9479 26.3438H22.5625Z" fill="#71A5D8"/>
<path d="M24.9427 34.3281L23.8906 26.3438H42.6198L41.5729 34.3281H24.9427Z" fill="#A8DCFB"/>
<path d="M23.7866 35.646H42.7293V37.922H23.7866V35.646Z" fill="#4E69B5"/>
<path d="M33.2552 31.5988C34.1297 31.5988 34.8385 30.8899 34.8385 30.0155C34.8385 29.141 34.1297 28.4321 33.2552 28.4321C32.3808 28.4321 31.6719 29.141 31.6719 30.0155C31.6719 30.8899 32.3808 31.5988 33.2552 31.5988Z" fill="white"/>
<path d="M3.38525 37.9219H48.7498V49.9948H3.38525V37.9219Z" fill="#F09D65"/>
<path d="M47.1929 39.4844V49.9948H4.95328V39.4844H47.1929Z" fill="#FFC088"/>
<path d="M44.0781 39.4844V44.4062C44.0781 45.0472 43.8235 45.6619 43.3703 46.1151C42.9171 46.5683 42.3024 46.8229 41.6615 46.8229H12.2552V39.4844H44.0781Z" fill="#FFD9B5"/>
<path d="M36.224 11.6514C36.0858 11.6514 35.9533 11.5965 35.8557 11.4988C35.758 11.4011 35.7031 11.2687 35.7031 11.1305V10.7972C35.7031 10.6591 35.758 10.5266 35.8557 10.4289C35.9533 10.3312 36.0858 10.2764 36.224 10.2764C36.3621 10.2764 36.4946 10.3312 36.5922 10.4289C36.6899 10.5266 36.7448 10.6591 36.7448 10.7972V11.1305C36.7448 11.2687 36.6899 11.4011 36.5922 11.4988C36.4946 11.5965 36.3621 11.6514 36.224 11.6514Z" fill="#3C3264"/>
<path d="M36.9793 9.85954H35.4637C35.3256 9.85954 35.1931 9.80466 35.0954 9.70699C34.9977 9.60931 34.9429 9.47684 34.9429 9.3387C34.9429 9.20057 34.9977 9.06809 35.0954 8.97042C35.1931 8.87274 35.3256 8.81787 35.4637 8.81787H36.9793C37.1175 8.81787 37.2499 8.87274 37.3476 8.97042C37.4453 9.06809 37.5002 9.20057 37.5002 9.3387C37.5002 9.47684 37.4453 9.60931 37.3476 9.70699C37.2499 9.80466 37.1175 9.85954 36.9793 9.85954Z" fill="#3C3264"/>
<path d="M30.2918 11.6514C30.1537 11.6514 30.0212 11.5965 29.9235 11.4988C29.8259 11.4011 29.771 11.2687 29.771 11.1305V10.7972C29.771 10.6591 29.8259 10.5266 29.9235 10.4289C30.0212 10.3312 30.1537 10.2764 30.2918 10.2764C30.43 10.2764 30.5624 10.3312 30.6601 10.4289C30.7578 10.5266 30.8127 10.6591 30.8127 10.7972V11.1305C30.8127 11.2687 30.7578 11.4011 30.6601 11.4988C30.5624 11.5965 30.43 11.6514 30.2918 11.6514Z" fill="#3C3264"/>
<path d="M31.0469 9.85954H29.5365C29.3983 9.85954 29.2658 9.80466 29.1682 9.70699C29.0705 9.60931 29.0156 9.47684 29.0156 9.3387C29.0156 9.20057 29.0705 9.06809 29.1682 8.97042C29.2658 8.87274 29.3983 8.81787 29.5365 8.81787H31.0469C31.185 8.81787 31.3175 8.87274 31.4152 8.97042C31.5128 9.06809 31.5677 9.20057 31.5677 9.3387C31.5677 9.47684 31.5128 9.60931 31.4152 9.70699C31.3175 9.80466 31.185 9.85954 31.0469 9.85954Z" fill="#3C3264"/>
<path d="M31.3231 16.526C31.2457 16.4113 31.2171 16.2706 31.2435 16.1349C31.2698 15.9991 31.3491 15.8794 31.4637 15.802C31.5784 15.7247 31.719 15.696 31.8548 15.7224C31.9906 15.7488 32.1103 15.828 32.1877 15.9427C32.3051 16.1188 32.4643 16.2633 32.651 16.3632C32.8377 16.4631 33.0462 16.5154 33.258 16.5154C33.4697 16.5154 33.6782 16.4631 33.8649 16.3632C34.0516 16.2633 34.2108 16.1188 34.3283 15.9427C34.3661 15.8854 34.4149 15.8362 34.4718 15.7978C34.5287 15.7595 34.5927 15.7328 34.66 15.7192C34.7272 15.7057 34.7965 15.7056 34.8638 15.7189C34.9312 15.7322 34.9952 15.7587 35.0522 15.7968C35.1664 15.8732 35.2458 15.9916 35.2731 16.1262C35.3004 16.2608 35.2735 16.4007 35.1981 16.5156C34.9856 16.8341 34.6979 17.0955 34.3605 17.2765C34.0231 17.4576 33.6463 17.5529 33.2634 17.5539C32.8804 17.5549 32.5031 17.4617 32.1648 17.2824C31.8264 17.1032 31.5373 16.8434 31.3231 16.526Z" fill="#3C3264"/>
<path d="M36.9791 6.73963C36.8503 6.74041 36.7258 6.69347 36.6296 6.60787C36.5334 6.52227 36.4724 6.40407 36.4582 6.27609L36.2707 4.51047C36.2632 4.44207 36.2692 4.37286 36.2884 4.30679C36.3077 4.24072 36.3397 4.17908 36.3828 4.1254C36.4258 4.07172 36.479 4.02704 36.5393 3.99391C36.5996 3.96079 36.6659 3.93986 36.7343 3.93234C36.8027 3.92482 36.8719 3.93084 36.9379 3.95006C37.004 3.96929 37.0656 4.00133 37.1193 4.04438C37.173 4.08742 37.2177 4.14062 37.2508 4.20093C37.2839 4.26124 37.3049 4.32749 37.3124 4.39588L37.5051 6.16151C37.5132 6.235 37.5056 6.30938 37.4828 6.37971C37.46 6.45004 37.4224 6.5147 37.3727 6.56939C37.3229 6.62408 37.2621 6.66755 37.1942 6.6969C37.1263 6.72626 37.053 6.74082 36.9791 6.73963Z" fill="#3F3C6A"/>
<path d="M15.9793 34.1667V30.1562H10.4272V34.1667L13.2033 39.4375L15.9793 34.1667Z" fill="#FFBAAB"/>
<path d="M20.63 22.1354V24.5521C20.63 26.5219 19.8476 28.411 18.4547 29.8039C17.0619 31.1967 15.1727 31.9792 13.203 31.9792C11.2332 31.9792 9.34407 31.1967 7.95122 29.8039C6.55837 28.411 5.77588 26.5219 5.77588 24.5521V22.1354L7.15088 20.3854C7.51152 19.9267 7.71593 19.3645 7.73421 18.7813L7.81754 16.6042C7.82697 16.3633 7.92934 16.1354 8.10317 15.9684C8.277 15.8014 8.50877 15.7082 8.74984 15.7084C11.6688 16.0773 14.6226 16.0773 17.5415 15.7084C17.6691 15.6924 17.7986 15.7031 17.9218 15.7399C18.045 15.7766 18.1592 15.8386 18.2572 15.9219C18.3551 16.0051 18.4347 16.1079 18.4908 16.2235C18.5469 16.3392 18.5784 16.4653 18.5832 16.5938L18.6665 18.7709C18.6897 19.3532 18.8936 19.9138 19.2498 20.375L20.63 22.1354Z" fill="#FFD3C4"/>
<path d="M12.2135 11.271H14.1927C17.3802 11.271 19.6927 13.672 19.6927 13.672C20.9927 15.0601 21.7169 16.8901 21.7188 18.7918V25.2762C21.7188 26.3813 21.2798 27.4411 20.4984 28.2225C19.717 29.0039 18.6572 29.4429 17.5521 29.4429H8.85417C7.7491 29.4429 6.68929 29.0039 5.90789 28.2225C5.12649 27.4411 4.6875 26.3813 4.6875 25.2762V18.7918C4.68682 17.8036 4.88105 16.8248 5.25909 15.9117C5.63713 14.9986 6.19155 14.169 6.89062 13.4704C7.58968 12.7719 8.41966 12.218 9.33304 11.8406C10.2464 11.4632 11.2253 11.2696 12.2135 11.271Z" fill="#74383D"/>
<path d="M21.719 21.2502V18.7918C21.7158 16.8894 20.9897 15.0592 19.6877 13.672C19.6877 13.672 17.3752 11.271 14.1877 11.271H12.2086C11.2212 11.271 10.2434 11.4656 9.33127 11.8436C8.41909 12.2216 7.59034 12.7757 6.89238 13.4741C6.19442 14.1726 5.64094 15.0017 5.26355 15.9141C4.88616 16.8266 4.69226 17.8044 4.69295 18.7918V21.2502C4.68696 22.3051 5.02484 23.3333 5.65542 24.1791C6.286 25.0249 7.17496 25.6422 8.18774 25.9377C11.4639 26.8882 14.9428 26.8882 18.219 25.9377C19.2327 25.6432 20.1229 25.0263 20.7544 24.1804C21.386 23.3345 21.7247 22.3058 21.719 21.2502Z" fill="#88515B"/>
<path d="M9.06266 21.3543C8.70373 21.2487 8.38857 21.0299 8.16422 20.7304C7.93988 20.431 7.81839 20.067 7.81787 19.6929V17.2293C7.81925 16.0639 8.28282 14.9466 9.1069 14.1225C9.93098 13.2984 11.0483 12.8349 12.2137 12.8335H14.1929C15.8595 12.8335 17.2658 14.1095 17.4429 14.2814C18.181 15.086 18.5915 16.1375 18.5939 17.2293V19.6877C18.5934 20.0632 18.4713 20.4284 18.246 20.7288C18.0207 21.0292 17.7042 21.2487 17.3439 21.3543C14.6395 22.1408 11.7671 22.1408 9.06266 21.3543Z" fill="#92606F"/>
<path d="M26.4115 49.9998H0L2.29167 39.6769C2.51934 38.6537 3.01806 37.7105 3.73556 36.9463C4.45306 36.182 5.36293 35.6249 6.36979 35.3332L10.4271 34.1665H15.9792L20.0365 35.3332C21.044 35.6246 21.9547 36.1815 22.6731 36.9457C23.3915 37.71 23.8912 38.6533 24.1198 39.6769L26.4115 49.9998Z" fill="#DEE2E6"/>
<path d="M1.72412 50.0002L3.80745 40.0106C3.97274 39.2614 4.33727 38.5707 4.86256 38.0115C5.38785 37.4523 6.0544 37.0453 6.79183 36.8335L10.6356 35.7241H15.7502L19.5939 36.8335C20.332 37.045 20.9994 37.4518 21.5256 38.0109C22.0518 38.5701 22.4173 39.261 22.5835 40.0106L24.8231 50.0002H1.72412Z" fill="#E9ECEF"/>
<path d="M5.44775 49.9998L6.86442 43.229C6.97656 42.7204 7.22402 42.2516 7.58065 41.872C7.93728 41.4925 8.38983 41.2163 8.89046 41.0728L11.4946 40.3228H14.9582L17.5623 41.0728C18.063 41.2163 18.5155 41.4925 18.8721 41.872C19.2288 42.2516 19.4762 42.7204 19.5884 43.229L21.0988 49.9998H5.44775Z" fill="#F8F9FA"/>
</svg>
