<svg width="89" height="86" viewBox="0 0 89 86" fill="none" xmlns="http://www.w3.org/2000/svg">
<path d="M71 85.9376C70.3108 70.0457 70.2162 57.1133 66.3784 53.1808C61.2568 47.9376 37.8514 44.1133 37.8514 44.1133H33.1487C33.1487 44.1133 9.75676 47.9376 4.62162 53.1808C0.77027 57.1268 0.675676 70.0457 0 85.9376H71Z" fill="#6699FF"/>
<path d="M33.4458 51.5322H37.5539V68.7349H33.4458V51.5322Z" fill="#4F8BED"/>
<path d="M55.4321 74.4375H57.7024V85.951H55.4321V74.4375Z" fill="#4F8BED"/>
<path d="M13.2837 74.4375H15.554V85.951H13.2837V74.4375Z" fill="#4F8BED"/>
<path d="M43.7028 35.0996V43.7077L36.6622 51.532C35.892 51.8564 35.1082 51.8564 34.3379 51.532L27.2974 43.7077V35.0996H43.7028Z" fill="#EFA167"/>
<path d="M26.0948 62.1947C28.2299 56.492 31.3245 54.3703 34.3921 51.546L27.284 43.7217L22.9732 46.1136C22.5948 50.073 24.2569 56.046 26.0948 62.1947Z" fill="#88B6FF"/>
<path d="M44.892 62.1947C42.7569 56.492 39.6623 54.3703 36.5947 51.546L43.7028 43.7217L48.0136 46.1136C48.392 50.073 46.7299 56.046 44.892 62.1947Z" fill="#88B6FF"/>
<path d="M51.0624 30.0122C51.6505 27.7052 50.7319 25.4794 49.0107 25.0406C47.2895 24.6019 45.4175 26.1164 44.8294 28.4234C44.2414 30.7304 45.16 32.9563 46.8812 33.395C48.6024 33.8337 50.4744 32.3192 51.0624 30.0122Z" fill="#EFA167"/>
<path d="M23.9668 33.3724C25.688 32.9337 26.6066 30.7079 26.0185 28.4009C25.4304 26.0939 23.5584 24.5794 21.8372 25.0181C20.116 25.4568 19.1974 27.6827 19.7855 29.9897C20.3735 32.2967 22.2456 33.8112 23.9668 33.3724Z" fill="#EFA167"/>
<path d="M21.446 19.3428L23.1081 32.4104C23.5946 36.2212 25.3784 39.7482 28.1487 42.4104L30.5406 44.7077C31.527 45.6401 32.8243 46.1671 34.1757 46.1671H36.6487C38 46.1671 39.3108 45.6401 40.2838 44.7077L42.6757 42.4239C45.4595 39.7617 47.2433 36.2212 47.7162 32.4104L49.3649 19.3563C49.3649 5.42389 36.9325 7.11308 28.4865 9.18065C24.0541 10.3833 21.1352 14.2888 21.446 19.3428Z" fill="#FFB476"/>
<path d="M46.0811 24.9377C44.6351 23.8972 42.7838 23.4242 41.0135 23.6539C40.1487 23.762 39.2973 24.0458 38.4324 24.0999C38.1081 24.1269 37.7297 24.0863 37.5676 23.8026C37.3649 23.4512 37.5946 23.1269 37.8649 22.9107C38 22.8026 38.5946 22.4242 38.7838 22.3026C38.6622 22.5458 38.5 22.8026 38.3784 23.0458C38.8649 22.4377 39.5946 22.0458 40.3649 21.9512C40.1487 22.0863 39.9865 22.262 39.8784 22.4918C40.6892 22.1404 41.5676 21.9107 42.4595 21.9377C43.3514 21.9647 44.2433 22.235 44.9324 22.7755C44.7162 22.762 44.5 22.762 44.2838 22.762C44.7703 22.8972 45.2162 23.1809 45.527 23.5593C45.8649 23.9512 46.0541 24.4377 46.0811 24.9377Z" fill="#4D4D4D"/>
<path d="M45.027 26.586C42.7703 27.4238 40.8379 27.8022 38.4595 26.7076C40.3649 24.8698 42.5541 24.8157 45.027 26.586Z" fill="#4D4D4D"/>
<path d="M44.6757 26.586C42.6622 27.4238 40.946 27.8022 38.8379 26.7076C40.5136 24.8698 42.473 24.8157 44.6757 26.586Z" fill="#F2F2F2"/>
<path d="M43.0407 26.2886C43.0407 26.694 42.8786 27.0318 42.6353 27.2616C42.0543 27.3967 41.5407 27.4102 40.9191 27.3427C40.5678 27.1129 40.3921 26.721 40.3921 26.2886C40.3921 25.9643 40.5002 25.667 40.6759 25.4372C41.3516 25.194 42.0407 25.221 42.7975 25.4913C42.9732 25.694 43.0407 25.9913 43.0407 26.2886Z" fill="#4D4D4D"/>
<path d="M41.716 26.8832C42.0519 26.8832 42.3241 26.6109 42.3241 26.2751C42.3241 25.9392 42.0519 25.667 41.716 25.667C41.3802 25.667 41.1079 25.9392 41.1079 26.2751C41.1079 26.6109 41.3802 26.8832 41.716 26.8832Z" fill="#3A3A3A"/>
<path d="M41.473 25.9639C41.473 26.1126 41.3514 26.2342 41.2027 26.2342C41.0541 26.2342 40.9595 26.1126 40.9595 25.9639C40.9595 25.8423 41.0541 25.7207 41.2027 25.7207C41.3514 25.7207 41.473 25.8423 41.473 25.9639Z" fill="white"/>
<path d="M24.7432 24.9377C26.1891 23.8972 28.0405 23.4242 29.8107 23.6539C30.6756 23.762 31.5269 24.0458 32.3918 24.0999C32.7161 24.1269 33.0945 24.0863 33.2567 23.8026C33.4594 23.4512 33.2297 23.1269 32.9594 22.9107C32.8242 22.8026 32.2297 22.4242 32.0405 22.3026C32.1621 22.5458 32.3242 22.8026 32.4459 23.0458C31.9594 22.4377 31.2297 22.0458 30.4594 21.9512C30.6756 22.0863 30.8378 22.262 30.9459 22.4918C30.1351 22.1404 29.2567 21.9107 28.3648 21.9377C27.4729 21.9512 26.581 22.235 25.8918 22.7755C26.108 22.762 26.3242 22.762 26.5405 22.762C26.054 22.8972 25.608 23.1809 25.2972 23.5593C24.9864 23.9377 24.7702 24.4377 24.7432 24.9377Z" fill="#4D4D4D"/>
<path d="M25.7837 26.586C28.0404 27.4238 29.9729 27.8022 32.3513 26.7076C30.4594 24.8698 28.2567 24.8157 25.7837 26.586Z" fill="#4D4D4D"/>
<path d="M26.1484 26.586C28.162 27.4238 29.8782 27.8022 31.9863 26.7076C30.3106 24.8698 28.3511 24.8157 26.1484 26.586Z" fill="#F2F2F2"/>
<path d="M27.7837 26.2886C27.7837 26.694 27.9459 27.0318 28.1891 27.2616C28.7702 27.3967 29.2837 27.4102 29.9053 27.3427C30.2567 27.1129 30.4323 26.721 30.4323 26.2886C30.4323 25.9643 30.3242 25.667 30.1486 25.4372C29.4729 25.194 28.7837 25.221 28.0269 25.4913C27.8513 25.694 27.7837 25.9913 27.7837 26.2886Z" fill="#4D4D4D"/>
<path d="M29.1081 26.8832C29.444 26.8832 29.7162 26.6109 29.7162 26.2751C29.7162 25.9392 29.444 25.667 29.1081 25.667C28.7723 25.667 28.5 25.9392 28.5 26.2751C28.5 26.6109 28.7723 26.8832 29.1081 26.8832Z" fill="#3A3A3A"/>
<path d="M29.3511 25.9639C29.3511 26.1126 29.4727 26.2342 29.6213 26.2342C29.77 26.2342 29.8646 26.1126 29.8646 25.9639C29.8646 25.8423 29.77 25.7207 29.6213 25.7207C29.4727 25.7207 29.3511 25.8423 29.3511 25.9639Z" fill="white"/>
<path d="M32.3647 34.356C32.7837 34.0452 33.3377 33.883 33.8918 33.9641C34.1756 33.9911 34.4323 34.1127 34.6756 34.2614C34.8783 34.3965 35.0674 34.4506 35.2972 34.4506C35.5134 34.4506 35.7161 34.3965 35.9188 34.2614C36.162 34.1127 36.4188 33.9911 36.7026 33.9641C37.2566 33.883 37.8107 34.0452 38.2296 34.356C37.7431 34.1803 37.2161 34.1533 36.7566 34.2749C36.5269 34.3425 36.3107 34.4371 36.1215 34.5722C35.9053 34.7479 35.5945 34.8695 35.2972 34.8695C34.9999 34.8695 34.6891 34.7479 34.4729 34.5722C34.2837 34.4371 34.0674 34.3425 33.8377 34.2749C33.3647 34.1398 32.8512 34.1803 32.3647 34.356Z" fill="#EFA167"/>
<path d="M38.27 33.8294C38.3511 33.3023 38.0538 32.8429 37.743 32.4375C37.4457 32.0321 37.1214 31.5996 36.9322 31.0996C36.5808 30.1131 36.5268 28.978 36.9457 28.0186C36.7025 29.0186 36.7295 30.0861 37.1214 31.0321C37.2835 31.5186 37.5673 31.9375 37.8646 32.3699C38.1619 32.7753 38.4457 33.3159 38.27 33.8294Z" fill="#EFA167"/>
<path d="M32.4461 33.8294C32.2839 33.3159 32.5542 32.7753 32.865 32.3699C33.1623 31.9375 33.4461 31.505 33.6082 31.0321C34.0001 30.0861 34.0271 29.0321 33.7839 28.0186C34.2028 28.978 34.1352 30.1131 33.7974 31.0996C33.6082 31.5996 33.2839 32.0321 32.9866 32.4375C32.6623 32.8429 32.365 33.3023 32.4461 33.8294Z" fill="#EFA167"/>
<path d="M39.0945 39.0458C37.2837 41.2214 33.8918 41.1133 31.9053 38.9512C33.9999 40.8025 37.135 40.8836 39.0945 39.0458Z" fill="#EDA269"/>
<path d="M40.6079 36.1807C39.0809 41.1401 32.1349 40.9509 30.189 36.1807C33.6755 37.4644 37.1214 37.4644 40.6079 36.1807Z" fill="#C47139"/>
<path d="M39.6483 37.9782C37.7293 40.3565 34.0131 40.4106 31.6753 38.3566C32.6888 37.8566 34.3239 37.5322 36.1483 37.5322C37.4861 37.5322 38.7023 37.6944 39.6483 37.9782Z" fill="#D3834C"/>
<path d="M39.0945 36.6533V37.329C39.0945 37.5452 38.9594 37.7344 38.7567 37.802C36.6216 38.5182 34.3918 38.5182 32.054 37.802C31.8513 37.7344 31.7026 37.5452 31.7026 37.329V36.6668C34.1756 37.302 36.6216 37.302 39.0945 36.6533Z" fill="#F2F2F2"/>
<path d="M40.6079 36.1807C37.1619 38.0185 33.7025 37.9644 30.189 36.1807C33.6755 37.4644 37.1214 37.4644 40.6079 36.1807Z" fill="#EDA269"/>
<path d="M33 42.5996C34.2432 41.0996 36.6081 41.1672 37.973 42.6672C36.527 41.3834 34.3649 41.3293 33 42.5996Z" fill="#EDA269"/>
<path d="M51.446 16.7077C50.2298 19.505 48.2162 28.5996 48.2162 28.5996C48.2162 28.5996 46.6216 24.0861 46.9054 18.7347C47.1892 13.3834 46.2568 12.0726 46.2568 12.0726C41.2703 18.5591 37.5135 16.5861 37.5135 16.5861C40.8108 15.1807 40.9865 13.1942 40.9865 13.1942C33 18.7347 28.5811 16.1942 25.6757 18.3563C22.7703 20.5185 22.6757 28.9645 22.6757 28.9645C22.6757 28.9645 20.3108 22.0185 19.9054 14.8158C19.5 7.6131 25.0946 2.24824 33.6081 0.315806C42.1487 -1.61663 46.7027 5.95094 46.7027 5.95094C53.7162 4.9104 52.6757 13.9104 51.446 16.7077Z" fill="#4D4D4D"/>
<path d="M51.446 16.7075C50.2298 19.5048 48.2163 28.5994 48.2163 28.5994C48.2163 28.5994 46.6217 24.0859 46.9055 18.7346C47.1893 13.3832 46.2568 12.0724 46.2568 12.0724C46.2568 12.0724 47.7974 9.68051 46.7163 5.96429C53.7163 4.91024 52.6758 13.9102 51.446 16.7075Z" fill="#353535"/>
<path d="M66.9057 55.2748H65.5003V53.91C65.5003 53.3424 65.0408 52.8965 64.4868 52.8965H53.6084C53.0408 52.8965 52.5949 53.3559 52.5949 53.91V55.2748H51.1895V53.91C51.1895 52.5721 52.284 51.4775 53.6219 51.4775H64.5003C65.8381 51.4775 66.9327 52.5721 66.9327 53.91V55.2748H66.9057Z" fill="#4D4D4D"/>
<path d="M64.5811 54.8965H67.8243V56.4641H64.5811V54.8965Z" fill="#F2F2F2"/>
<path d="M50.2568 54.8965H53.5001V56.4641H50.2568V54.8965Z" fill="#F2F2F2"/>
<path d="M79.9054 59.4907V82.8961C79.9054 84.5718 78.5405 85.9367 76.8648 85.9367H41.2027C39.527 85.9367 38.1621 84.5718 38.1621 82.8961V59.4907C38.1621 57.8151 39.527 56.4502 41.2027 56.4502H76.8648C78.554 56.4637 79.9054 57.8151 79.9054 59.4907Z" fill="#BC572A"/>
<path d="M79.9054 59.4907V67.2475C79.9054 68.9232 78.5405 70.288 76.8648 70.288H41.2027C39.527 70.288 38.1621 68.9232 38.1621 67.2475V59.4907C38.1621 57.8151 39.527 56.4502 41.2027 56.4502H76.8648C78.554 56.4637 79.9054 57.8151 79.9054 59.4907Z" fill="#CC6633"/>
<path d="M74.162 70.8287V74.5449C74.162 74.9368 73.8512 75.2476 73.4593 75.2476H70.3106C69.9187 75.2476 69.6079 74.9368 69.6079 74.5449V70.8287C69.6079 70.4368 69.9187 70.126 70.3106 70.126H73.4593C73.8512 70.126 74.162 70.4368 74.162 70.8287Z" fill="#E0DFDE"/>
<path d="M73.3512 73.5182V74.1128C73.3512 74.3561 73.1485 74.5588 72.9053 74.5588H70.8917C70.6485 74.5588 70.4458 74.3561 70.4458 74.1128V73.5182C70.4458 73.275 70.6485 73.0723 70.8917 73.0723H72.9053C73.1485 73.0723 73.3512 73.275 73.3512 73.5182Z" fill="#F2F2F2"/>
<path d="M74.162 68.2613V71.9775C74.162 72.3694 73.8512 72.6802 73.4593 72.6802H70.3106C69.9187 72.6802 69.6079 72.3694 69.6079 71.9775V68.2613C69.6079 67.8694 69.9187 67.5586 70.3106 67.5586H73.4593C73.8512 67.5586 74.162 67.8694 74.162 68.2613Z" fill="#F2F2F2"/>
<path d="M48.473 70.8287V74.5449C48.473 74.9368 48.1622 75.2476 47.7703 75.2476H44.6216C44.2298 75.2476 43.9189 74.9368 43.9189 74.5449V70.8287C43.9189 70.4368 44.2298 70.126 44.6216 70.126H47.7703C48.1622 70.126 48.473 70.4368 48.473 70.8287Z" fill="#E0DFDE"/>
<path d="M47.6622 73.5182V74.1128C47.6622 74.3561 47.4595 74.5588 47.2163 74.5588H45.2028C44.9595 74.5588 44.7568 74.3561 44.7568 74.1128V73.5182C44.7568 73.275 44.9595 73.0723 45.2028 73.0723H47.2163C47.4595 73.0723 47.6622 73.275 47.6622 73.5182Z" fill="#F2F2F2"/>
<path d="M48.473 68.2613V71.9775C48.473 72.3694 48.1622 72.6802 47.7703 72.6802H44.6216C44.2298 72.6802 43.9189 72.3694 43.9189 71.9775V68.2613C43.9189 67.8694 44.2298 67.5586 44.6216 67.5586H47.7703C48.1622 67.5586 48.473 67.8694 48.473 68.2613Z" fill="#F2F2F2"/>
<path d="M86.3453 52.7953C87.5848 45.1491 82.3912 37.9458 74.7449 36.7063C67.0987 35.4668 59.8955 40.6605 58.6559 48.3067C57.4164 55.9529 62.6101 63.1562 70.2563 64.3957C77.9025 65.6352 85.1058 60.4415 86.3453 52.7953Z" fill="#99CC33"/>
<path d="M70.1756 56.5054C69.8107 56.5054 69.4594 56.3703 69.1756 56.0865L64.7432 51.6675C64.1891 51.1135 64.1891 50.2216 64.7432 49.6675C65.2972 49.1135 66.1891 49.1135 66.7432 49.6675L70.1756 53.1L78.2702 45.0054C78.8243 44.4513 79.7161 44.4513 80.2702 45.0054C80.8243 45.5594 80.8243 46.4513 80.2702 47.0054L71.1756 56.1C70.9053 56.3702 70.5405 56.5054 70.1756 56.5054Z" fill="white"/>
</svg>
