<svg id="Layer_1" data-name="Layer 1" xmlns="http://www.w3.org/2000/svg" width="22" height="22" viewBox="0 0 22 22"><defs><style>.cls-1{fill:#fff;fill-rule:evenodd;}</style></defs><title>pmp_home</title><path class="cls-1" d="M14.42.5a8.08,8.08,0,1,1,0,16.17h-.35c0-.11,0-.21,0-.31s0-.25,0-.33,0-.19,0-.33,0-.21,0-.33h.35a6.8,6.8,0,1,0-6.8-6.8q0,.18,0,.35l-.33,0H6.65l-.31,0q0-.18,0-.35A8.08,8.08,0,0,1,14.42.5ZM13.45,16q0-.3,0-.6c0-.41-.3-.5-.63-.53a1.39,1.39,0,0,1-.91-2.2.58.58,0,0,0,.07-.82q-.19-.23-.4-.44t-.44-.4a.6.6,0,0,0-.82.07,1.39,1.39,0,0,1-2.2-.91c0-.34-.13-.58-.53-.63l-.6,0-.6,0c-.39.05-.48.28-.53.63a1.39,1.39,0,0,1-2.2.91A.6.6,0,0,0,2.83,11q-.23.19-.44.4t-.4.44a.58.58,0,0,0,.07.82,1.39,1.39,0,0,1-.91,2.2c-.33,0-.58.11-.63.53q0,.29,0,.6t0,.6c0,.41.3.5.63.53a1.39,1.39,0,0,1,.91,2.2.58.58,0,0,0-.07.82q.19.23.4.44t.44.4a.6.6,0,0,0,.82-.07,1.39,1.39,0,0,1,2.2.91c0,.34.13.58.53.63l.6,0,.6,0c.39-.05.48-.28.53-.63a1.39,1.39,0,0,1,2.2-.91.6.6,0,0,0,.82.07q.23-.19.44-.4t.4-.44a.58.58,0,0,0-.07-.82,1.39,1.39,0,0,1,.91-2.2c.33,0,.58-.11.63-.53q0-.29,0-.6ZM7,14a2,2,0,1,0,2,2,2,2,0,0,0-2-2Zm0-1.25A3.28,3.28,0,1,0,10.25,16,3.28,3.28,0,0,0,7,12.75Zm8.3-5.63V5a.85.85,0,0,0-1.71,0v2.1A1.69,1.69,0,1,0,16,9.23h3.39a.64.64,0,0,0,0-1.29H16A1.7,1.7,0,0,0,15.27,7.12Z" transform="translate(-0.5 -0.5)"/></svg>